<?xml version="1.0" encoding="iso-8859-1"?>
<!-- Uploaded to: SVG Repo, www.svgrepo.com, Generator: SVG Repo Mixer Tools -->
<svg fill="#000000" version="1.1" id="Capa_1" xmlns="http://www.w3.org/2000/svg" xmlns:xlink="http://www.w3.org/1999/xlink" 
	 viewBox="0 0 59 59" xml:space="preserve">
<g>
	<path d="M15.289,53.679c0.386-0.828,0.257-1.78-0.336-2.484C12.082,47.781,10.5,43.45,10.5,39c0-5.31,2.257-10.415,6.192-14.007
		c0.705-0.644,0.937-1.634,0.592-2.523C16.938,21.577,16.095,21,15.137,21H4.461C2.828,21,1.5,22.328,1.5,23.961v28.078
		C1.5,53.672,2.828,55,4.461,55h8.749C14.113,55,14.909,54.494,15.289,53.679z"/>
	<path d="M54.539,21H43.863c-0.958,0-1.801,0.577-2.147,1.47c-0.345,0.89-0.113,1.88,0.592,2.523C46.243,28.585,48.5,33.69,48.5,39
		c0,4.45-1.581,8.781-4.453,12.194c-0.593,0.704-0.722,1.656-0.336,2.484C44.091,54.494,44.887,55,45.791,55h8.749
		c1.633,0,2.961-1.328,2.961-2.961V23.961C57.5,22.328,56.172,21,54.539,21z"/>
	<path d="M23.5,39c0,3.309,2.691,6,6,6s6-2.691,6-6s-2.691-6-6-6S23.5,35.691,23.5,39z"/>
	<path d="M12.5,39c0,9.374,7.626,17,17,17s17-7.626,17-17s-7.626-17-17-17S12.5,29.626,12.5,39z M37.5,39c0,4.411-3.589,8-8,8
		s-8-3.589-8-8s3.589-8,8-8S37.5,34.589,37.5,39z"/>
	<rect x="4.5" y="15" width="8" height="5"/>
	<path d="M46.5,20h7c0.553,0,1-0.447,1-1s-0.447-1-1-1h-7c-0.552,0-1,0.447-1,1S45.948,20,46.5,20z"/>
	<path d="M43.5,55c-0.552,0-1,0.447-1,1v1h-26v-1c0-0.553-0.448-1-1-1s-1,0.447-1,1v2c0,0.553,0.448,1,1,1h28c0.552,0,1-0.447,1-1
		v-2C44.5,55.447,44.052,55,43.5,55z"/>
	<circle cx="29.5" cy="8" r="2"/>
	<path d="M17.5,21c0.552,0,1-0.447,1-1h8h6h8c0,0.553,0.448,1,1,1s1-0.447,1-1v-1c0-0.553-0.448-1-1-1h-9v-2.589
		c2.928-1.19,5-4.061,5-7.411c0-4.411-3.589-8-8-8s-8,3.589-8,8c0,3.35,2.072,6.221,5,7.411V18h-9c-0.552,0-1,0.447-1,1v1
		C16.5,20.553,16.948,21,17.5,21z M30.5,18h-2v-2.063c0.022,0.003,0.044,0.002,0.066,0.004C28.873,15.977,29.184,16,29.5,16
		s0.627-0.023,0.934-0.059c0.022-0.003,0.044-0.001,0.066-0.004V18z M25.5,8c0-2.206,1.794-4,4-4s4,1.794,4,4s-1.794,4-4,4
		S25.5,10.206,25.5,8z"/>
</g>
</svg>